<svg xmlns="http://www.w3.org/2000/svg" width="941.9844970703125" height="398.93902587890625" viewBox="-223.20042419433594 -110.53288269042969 941.9844970703125 398.93902587890625"><title>Neo4j Graph Visualization</title><desc>Created using Neo4j (http://www.neo4j.com/)</desc><g class="layer relationships"><g class="relationship" transform="translate(306.28184955254625 191.67799552315515) rotate(191.78076336639475)"><path class="b-outline" fill="#A5ABB6" stroke="none" d="M 25 0.5 L 230.65236727862305 0.5 L 230.65236727862305 -0.5 L 25 -0.5 Z M 258.43752352862305 0.5 L 464.0898908072461 0.5 L 464.0898908072461 3.5 L 471.0898908072461 0 L 464.0898908072461 -3.5 L 464.0898908072461 -0.5 L 258.43752352862305 -0.5 Z"/><text text-anchor="middle" pointer-events="none" font-size="8px" fill="#000000" x="244.54494540362305" y="3" transform="rotate(180 244.54494540362305 0)" font-family="Helvetica Neue, Helvetica, Arial, sans-serif">USES</text></g><g class="relationship" transform="translate(306.28184955254625 191.67799552315515) rotate(343.28772257730384)"><path class="b-outline" fill="#A5ABB6" stroke="none" d="M 25 0.5 L 175.1497489652621 0.5 L 175.1497489652621 -0.5 L 25 -0.5 Z M 202.9349052152621 0.5 L 353.0846541805242 0.5 L 353.0846541805242 3.5 L 360.0846541805242 0 L 353.0846541805242 -3.5 L 353.0846541805242 -0.5 L 202.9349052152621 -0.5 Z"/><text text-anchor="middle" pointer-events="none" font-size="8px" fill="#000000" x="189.0423270902621" y="3" font-family="Helvetica Neue, Helvetica, Arial, sans-serif">USES</text></g><g class="relationship" transform="translate(365.52558612126364 116.50938473614903) rotate(182.86620598142343)"><path class="b-outline" fill="#A5ABB6" stroke="none" d="M 25 0.5 L 255.31626809638425 0.5 L 255.31626809638425 -0.5 L 25 -0.5 Z M 283.10142434638425 0.5 L 513.4176924427685 0.5 L 513.4176924427685 3.5 L 520.4176924427685 0 L 513.4176924427685 -3.5 L 513.4176924427685 -0.5 L 283.10142434638425 -0.5 Z"/><text text-anchor="middle" pointer-events="none" font-size="8px" fill="#000000" x="269.20884622138425" y="3" transform="rotate(180 269.20884622138425 0)" font-family="Helvetica Neue, Helvetica, Arial, sans-serif">USES</text></g><g class="relationship" transform="translate(365.52558612126364 116.50938473614903) rotate(353.2081810712373)"><path class="b-outline" fill="#A5ABB6" stroke="none" d="M 25 0.5 L 138.35596508593227 0.5 L 138.35596508593227 -0.5 L 25 -0.5 Z M 166.14112133593227 0.5 L 279.49708642186454 0.5 L 279.49708642186454 3.5 L 286.49708642186454 0 L 279.49708642186454 -3.5 L 279.49708642186454 -0.5 L 166.14112133593227 -0.5 Z"/><text text-anchor="middle" pointer-events="none" font-size="8px" fill="#000000" x="152.24854321093227" y="3" font-family="Helvetica Neue, Helvetica, Arial, sans-serif">USES</text></g><g class="relationship" transform="translate(212.60127854222995 170.93008352661985) rotate(191.61429899012188)"><path class="b-outline" fill="#A5ABB6" stroke="none" d="M 25 0.5 L 182.68156263599155 0.5 L 182.68156263599155 -0.5 L 25 -0.5 Z M 210.46671888599155 0.5 L 368.1482815219831 0.5 L 368.1482815219831 3.5 L 375.1482815219831 0 L 368.1482815219831 -3.5 L 368.1482815219831 -0.5 L 210.46671888599155 -0.5 Z"/><text text-anchor="middle" pointer-events="none" font-size="8px" fill="#000000" x="196.57414076099155" y="3" transform="rotate(180 196.57414076099155 0)" font-family="Helvetica Neue, Helvetica, Arial, sans-serif">USES</text></g><g class="relationship" transform="translate(212.60127854222995 170.93008352661985) rotate(348.90024795900604)"><path class="b-outline" fill="#A5ABB6" stroke="none" d="M 25 0.5 L 218.1756293419032 0.5 L 218.1756293419032 -0.5 L 25 -0.5 Z M 245.9607855919032 0.5 L 439.1364149338064 0.5 L 439.1364149338064 3.5 L 446.1364149338064 0 L 439.1364149338064 -3.5 L 439.1364149338064 -0.5 L 245.9607855919032 -0.5 Z"/><text text-anchor="middle" pointer-events="none" font-size="8px" fill="#000000" x="232.0682074669032" y="3" font-family="Helvetica Neue, Helvetica, Arial, sans-serif">USES</text></g><g class="relationship" transform="translate(300.89688696998337 -66.34821275468563) rotate(522.3429429024881)"><path class="b-outline" fill="#A5ABB6" stroke="none" d="M 25 0.5 L 234.7095007053555 0.5 L 234.7095007053555 -0.5 L 25 -0.5 Z M 262.4946569553555 0.5 L 472.204157660711 0.5 L 472.204157660711 3.5 L 479.204157660711 0 L 472.204157660711 -3.5 L 472.204157660711 -0.5 L 262.4946569553555 -0.5 Z"/><text text-anchor="middle" pointer-events="none" font-size="8px" fill="#000000" x="248.6020788303555" y="3" transform="rotate(180 248.6020788303555 0)" font-family="Helvetica Neue, Helvetica, Arial, sans-serif">USES</text></g><g class="relationship" transform="translate(300.89688696998337 -66.34821275468563) rotate(380.83371990942294)"><path class="b-outline" fill="#A5ABB6" stroke="none" d="M 25 0.5 L 182.89147356688264 0.5 L 182.89147356688264 -0.5 L 25 -0.5 Z M 210.67662981688264 0.5 L 368.5681033837653 0.5 L 368.5681033837653 3.5 L 375.5681033837653 0 L 368.5681033837653 -3.5 L 368.5681033837653 -0.5 L 210.67662981688264 -0.5 Z"/><text text-anchor="middle" pointer-events="none" font-size="8px" fill="#000000" x="196.78405169188264" y="3" font-family="Helvetica Neue, Helvetica, Arial, sans-serif">USES</text></g><g class="relationship" transform="translate(335.55253457693004 24.5666117651022) rotate(532.9816111106347)"><path class="b-outline" fill="#A5ABB6" stroke="none" d="M 25 0.5 L 241.95529474334506 0.5 L 241.95529474334506 -0.5 L 25 -0.5 Z M 269.74045099334506 0.5 L 486.6957457366901 0.5 L 486.6957457366901 3.5 L 493.6957457366901 0 L 486.6957457366901 -3.5 L 486.6957457366901 -0.5 L 269.74045099334506 -0.5 Z"/><text text-anchor="middle" pointer-events="none" font-size="8px" fill="#000000" x="255.84787286834506" y="3" transform="rotate(180 255.84787286834506 0)" font-family="Helvetica Neue, Helvetica, Arial, sans-serif">USES</text></g><g class="relationship" transform="translate(335.55253457693004 24.5666117651022) rotate(368.8872204578503)"><path class="b-outline" fill="#A5ABB6" stroke="none" d="M 25 0.5 L 154.32985546758317 0.5 L 154.32985546758317 -0.5 L 25 -0.5 Z M 182.11501171758317 0.5 L 311.44486718516634 0.5 L 311.44486718516634 3.5 L 318.44486718516634 0 L 311.44486718516634 -3.5 L 311.44486718516634 -0.5 L 182.11501171758317 -0.5 Z"/><text text-anchor="middle" pointer-events="none" font-size="8px" fill="#000000" x="168.22243359258317" y="3" font-family="Helvetica Neue, Helvetica, Arial, sans-serif">USES</text></g><g class="relationship" transform="translate(273.4140061135456 100.7920886906791) rotate(181.4853418932122)"><path class="b-outline" fill="#A5ABB6" stroke="none" d="M 25 0.5 L 208.99196241859084 0.5 L 208.99196241859084 -0.5 L 25 -0.5 Z M 236.77711866859084 0.5 L 420.7690810871817 0.5 L 420.7690810871817 3.5 L 427.7690810871817 0 L 420.7690810871817 -3.5 L 420.7690810871817 -0.5 L 236.77711866859084 -0.5 Z"/><text text-anchor="middle" pointer-events="none" font-size="8px" fill="#000000" x="222.88454054359084" y="3" transform="rotate(180 222.88454054359084 0)" font-family="Helvetica Neue, Helvetica, Arial, sans-serif">USES</text></g><g class="relationship" transform="translate(273.4140061135456 100.7920886906791) rotate(356.9189488028296)"><path class="b-outline" fill="#A5ABB6" stroke="none" d="M 25 0.5 L 183.58839732902317 0.5 L 183.58839732902317 -0.5 L 25 -0.5 Z M 211.37355357902317 0.5 L 369.96195090804633 0.5 L 369.96195090804633 3.5 L 376.96195090804633 0 L 369.96195090804633 -3.5 L 369.96195090804633 -0.5 L 211.37355357902317 -0.5 Z"/><text text-anchor="middle" pointer-events="none" font-size="8px" fill="#000000" x="197.48097545402317" y="3" font-family="Helvetica Neue, Helvetica, Arial, sans-serif">USES</text></g><g class="relationship" transform="translate(205.62144036890405 -81.53287991430122) rotate(516.523605591335)"><path class="b-outline" fill="#A5ABB6" stroke="none" d="M 25 0.5 L 192.72106940645688 0.5 L 192.72106940645688 -0.5 L 25 -0.5 Z M 220.50622565645688 0.5 L 388.22729506291375 0.5 L 388.22729506291375 3.5 L 395.22729506291375 0 L 388.22729506291375 -3.5 L 388.22729506291375 -0.5 L 220.50622565645688 -0.5 Z"/><text text-anchor="middle" pointer-events="none" font-size="8px" fill="#000000" x="206.61364753145688" y="3" transform="rotate(180 206.61364753145688 0)" font-family="Helvetica Neue, Helvetica, Arial, sans-serif">USES</text></g><g class="relationship" transform="translate(205.62144036890405 -81.53287991430122) rotate(378.589447235143)"><path class="b-outline" fill="#A5ABB6" stroke="none" d="M 25 0.5 L 230.3076175530093 0.5 L 230.3076175530093 -0.5 L 25 -0.5 Z M 258.0927738030093 0.5 L 463.4003913560186 0.5 L 463.4003913560186 3.5 L 470.4003913560186 0 L 463.4003913560186 -3.5 L 463.4003913560186 -0.5 L 258.0927738030093 -0.5 Z"/><text text-anchor="middle" pointer-events="none" font-size="8px" fill="#000000" x="244.2001956780093" y="3" font-family="Helvetica Neue, Helvetica, Arial, sans-serif">USES</text></g><g class="relationship" transform="translate(241.49719359009157 9.011747001139893) rotate(529.4368996223338)"><path class="b-outline" fill="#A5ABB6" stroke="none" d="M 25 0.5 L 196.64697436228712 0.5 L 196.64697436228712 -0.5 L 25 -0.5 Z M 224.43213061228712 0.5 L 396.07910497457425 0.5 L 396.07910497457425 3.5 L 403.07910497457425 0 L 396.07910497457425 -3.5 L 396.07910497457425 -0.5 L 224.43213061228712 -0.5 Z"/><text text-anchor="middle" pointer-events="none" font-size="8px" fill="#000000" x="210.53955248728712" y="3" transform="rotate(180 210.53955248728712 0)" font-family="Helvetica Neue, Helvetica, Arial, sans-serif">USES</text></g><g class="relationship" transform="translate(241.49719359009157 9.011747001139893) rotate(368.9947452832059)"><path class="b-outline" fill="#A5ABB6" stroke="none" d="M 25 0.5 L 201.99485677811558 0.5 L 201.99485677811558 -0.5 L 25 -0.5 Z M 229.78001302811558 0.5 L 406.77486980623115 0.5 L 406.77486980623115 3.5 L 413.77486980623115 0 L 406.77486980623115 -3.5 L 406.77486980623115 -0.5 L 229.78001302811558 -0.5 Z"/><text text-anchor="middle" pointer-events="none" font-size="8px" fill="#000000" x="215.88743490311558" y="3" font-family="Helvetica Neue, Helvetica, Arial, sans-serif">USES</text></g><g class="relationship" transform="translate(143.41647537490985 -7.264464264444852) rotate(523.7651145462095)"><path class="b-outline" fill="#A5ABB6" stroke="none" d="M 25 0.5 L 150.77116369800385 0.5 L 150.77116369800385 -0.5 L 25 -0.5 Z M 178.55631994800385 0.5 L 304.3274836460077 0.5 L 304.3274836460077 3.5 L 311.3274836460077 0 L 304.3274836460077 -3.5 L 304.3274836460077 -0.5 L 178.55631994800385 -0.5 Z"/><text text-anchor="middle" pointer-events="none" font-size="8px" fill="#000000" x="164.66374182300385" y="3" transform="rotate(180 164.66374182300385 0)" font-family="Helvetica Neue, Helvetica, Arial, sans-serif">USES</text></g><g class="relationship" transform="translate(143.41647537490985 -7.264464264444852) rotate(369.07262479653787)"><path class="b-outline" fill="#A5ABB6" stroke="none" d="M 25 0.5 L 251.70474613669165 0.5 L 251.70474613669165 -0.5 L 25 -0.5 Z M 279.48990238669165 0.5 L 506.1946485233833 0.5 L 506.1946485233833 3.5 L 513.1946485233833 0 L 506.1946485233833 -3.5 L 506.1946485233833 -0.5 L 279.48990238669165 -0.5 Z"/><text text-anchor="middle" pointer-events="none" font-size="8px" fill="#000000" x="265.59732426169165" y="3" font-family="Helvetica Neue, Helvetica, Arial, sans-serif">USES</text></g><g class="relationship" transform="translate(237.0497802718081 259.4061405187339) rotate(201.92307757146375)"><path class="b-outline" fill="#A5ABB6" stroke="none" d="M 25 0.5 L 207.24839908269155 0.5 L 207.24839908269155 -0.5 L 25 -0.5 Z M 235.03355533269155 0.5 L 417.2819544153831 0.5 L 417.2819544153831 3.5 L 424.2819544153831 0 L 417.2819544153831 -3.5 L 417.2819544153831 -0.5 L 235.03355533269155 -0.5 Z"/><text text-anchor="middle" pointer-events="none" font-size="8px" fill="#000000" x="221.14097720769155" y="3" transform="rotate(180 221.14097720769155 0)" font-family="Helvetica Neue, Helvetica, Arial, sans-serif">USES</text></g><g class="relationship" transform="translate(237.0497802718081 259.4061405187339) rotate(337.91865599433777)"><path class="b-outline" fill="#A5ABB6" stroke="none" d="M 25 0.5 L 219.09579618747583 0.5 L 219.09579618747583 -0.5 L 25 -0.5 Z M 246.88095243747583 0.5 L 440.97674862495165 0.5 L 440.97674862495165 3.5 L 447.97674862495165 0 L 440.97674862495165 -3.5 L 440.97674862495165 -0.5 L 246.88095243747583 -0.5 Z"/><text text-anchor="middle" pointer-events="none" font-size="8px" fill="#000000" x="232.98837431247583" y="3" font-family="Helvetica Neue, Helvetica, Arial, sans-serif">USES</text></g><g class="relationship" transform="translate(117.46749467238494 157.82161878627898) rotate(192.77402514686014)"><path class="b-outline" fill="#A5ABB6" stroke="none" d="M 25 0.5 L 134.80103130498324 0.5 L 134.80103130498324 -0.5 L 25 -0.5 Z M 162.58618755498324 0.5 L 272.3872188599665 0.5 L 272.3872188599665 3.5 L 279.3872188599665 0 L 272.3872188599665 -3.5 L 272.3872188599665 -0.5 L 162.58618755498324 -0.5 Z"/><text text-anchor="middle" pointer-events="none" font-size="8px" fill="#000000" x="148.69360942998324" y="3" transform="rotate(180 148.69360942998324 0)" font-family="Helvetica Neue, Helvetica, Arial, sans-serif">USES</text></g><g class="relationship" transform="translate(117.46749467238494 157.82161878627898) rotate(352.0340504708514)"><path class="b-outline" fill="#A5ABB6" stroke="none" d="M 25 0.5 L 264.01733564051966 0.5 L 264.01733564051966 -0.5 L 25 -0.5 Z M 291.80249189051966 0.5 L 530.8198275310393 0.5 L 530.8198275310393 3.5 L 537.8198275310393 0 L 530.8198275310393 -3.5 L 530.8198275310393 -0.5 L 291.80249189051966 -0.5 Z"/><text text-anchor="middle" pointer-events="none" font-size="8px" fill="#000000" x="277.90991376551966" y="3" font-family="Helvetica Neue, Helvetica, Arial, sans-serif">USES</text></g><g class="relationship" transform="translate(178.64743931491577 82.34269423816961) rotate(538.9778168204186)"><path class="b-outline" fill="#A5ABB6" stroke="none" d="M 25 0.5 L 161.56042609643177 0.5 L 161.56042609643177 -0.5 L 25 -0.5 Z M 189.34558234643177 0.5 L 325.90600844286354 0.5 L 325.90600844286354 3.5 L 332.90600844286354 0 L 325.90600844286354 -3.5 L 325.90600844286354 -0.5 L 189.34558234643177 -0.5 Z"/><text text-anchor="middle" pointer-events="none" font-size="8px" fill="#000000" x="175.45300422143177" y="3" transform="rotate(180 175.45300422143177 0)" font-family="Helvetica Neue, Helvetica, Arial, sans-serif">USES</text></g><g class="relationship" transform="translate(178.64743931491577 82.34269423816961) rotate(359.59516551930733)"><path class="b-outline" fill="#A5ABB6" stroke="none" d="M 25 0.5 L 230.68202825281054 0.5 L 230.68202825281054 -0.5 L 25 -0.5 Z M 258.46718450281054 0.5 L 464.1492127556211 0.5 L 464.1492127556211 3.5 L 471.1492127556211 0 L 464.1492127556211 -3.5 L 464.1492127556211 -0.5 L 258.46718450281054 -0.5 Z"/><text text-anchor="middle" pointer-events="none" font-size="8px" fill="#000000" x="244.57460637781054" y="3" font-family="Helvetica Neue, Helvetica, Arial, sans-serif">USES</text></g><g class="relationship" transform="translate(682.284080021025 78.78409231855028) rotate(539.3355933816796)"><path class="b-outline" fill="#A5ABB6" stroke="none" d="M 31.26317983184346,-8.894581878976458 L 31.52199887694598,-7.92865605268739 A 1555.949992519825 1555.949992519825 0 0 1 394.98750219818965,-60.45138402312227 L 394.96228031563646,-61.45106590084174 A 1556.949992519825 1556.949992519825 0 0 0 31.26317983184346,-8.894581878976458 Z M 467.0608696279916,-61.60021269076765 L 467.0397839286323,-60.60043501884138 A 1555.949992519825 1555.949992519825 0 0 1 830.7194779116024,-9.581916395946054 L 829.9550163486033,-6.680951294691488 L 837.6158067416962,-8.281666932490495 L 831.7387599956012,-13.449869864285475 L 830.974298432602,-10.54890476303091 A 1556.949992519825 1556.949992519825 0 0 0 467.0608696279916,-61.60021269076765"/><text text-anchor="middle" pointer-events="none" font-size="8px" fill="#000000" x="431.01174584891504" y="-58.44303612388717" transform="rotate(180 431.01174584891504 -61.44303612388717)" font-family="Helvetica Neue, Helvetica, Arial, sans-serif">CONNECTED_TO</text></g><g class="relationship" transform="translate(682.284080021025 78.78409231855028) rotate(539.3355933816796)"><path class="b-outline" fill="#A5ABB6" stroke="none" d="M 31.26317983184346,8.894581878976458 L 31.52199887694598,7.92865605268739 A 1555.949992519825 1555.949992519825 0 0 0 402.1649441454599,60.615901848615295 L 402.14433516305246,61.61568946098305 A 1556.949992519825 1556.949992519825 0 0 1 31.26317983184346,8.894581878976458 Z M 459.87819515453003,61.735120645003235 L 459.86172275329073,60.735256324208876 A 1555.949992519825 1555.949992519825 0 0 0 830.7194779116024,9.581916395946054 L 829.9550163486033,6.680951294691488 L 837.6158067416962,8.281666932490495 L 831.7387599956012,13.449869864285475 L 830.974298432602,10.54890476303091 A 1556.949992519825 1556.949992519825 0 0 1 459.87819515453003,61.735120645003235"/><text text-anchor="middle" pointer-events="none" font-size="8px" fill="#000000" x="431.0117458489155" y="64.44303612388717" transform="rotate(180 431.0117458489155 61.44303612388717)" font-family="Helvetica Neue, Helvetica, Arial, sans-serif">RELATED_TO</text></g></g><g class="layer nodes"><g class="node" aria-label="graph-node528" transform="translate(-186.7004195770224,88.86136045316476)"><circle class="b-outline" cx="0" cy="0" r="32.5" fill="#F79767" stroke="#f36924" stroke-width="2px"/><text class="caption" text-anchor="middle" pointer-events="none" x="0" y="5" font-size="10px" fill="#FFFFFF" font-family="Helvetica Neue, Helvetica, Arial, sans-serif"> T1566.001</text></g><g class="node" aria-label="graph-node11" transform="translate(306.28184955254625,191.67799552315515)"><circle class="b-outline" cx="0" cy="0" r="25" fill="#C990C0" stroke="#b261a5" stroke-width="2px"/><text class="caption" text-anchor="middle" pointer-events="none" x="0" y="5" font-size="10px" fill="#FFFFFF" font-family="Helvetica Neue, Helvetica, Arial, sans-serif"> G0050</text></g><g class="node" aria-label="graph-node346" transform="translate(682.284080021025,78.78409231855028)"><circle class="b-outline" cx="0" cy="0" r="32.5" fill="#F79767" stroke="#f36924" stroke-width="2px"/><text class="caption" text-anchor="middle" pointer-events="none" x="0" y="5" font-size="10px" fill="#FFFFFF" font-family="Helvetica Neue, Helvetica, Arial, sans-serif"> T1041</text></g><g class="node" aria-label="graph-node15" transform="translate(365.52558612126364,116.50938473614903)"><circle class="b-outline" cx="0" cy="0" r="25" fill="#C990C0" stroke="#b261a5" stroke-width="2px"/><text class="caption" text-anchor="middle" pointer-events="none" x="0" y="5" font-size="10px" fill="#FFFFFF" font-family="Helvetica Neue, Helvetica, Arial, sans-serif"> G0087</text></g><g class="node" aria-label="graph-node30" transform="translate(212.60127854222995,170.93008352661985)"><circle class="b-outline" cx="0" cy="0" r="25" fill="#C990C0" stroke="#b261a5" stroke-width="2px"/><text class="caption" text-anchor="middle" pointer-events="none" x="0" y="5" font-size="10px" fill="#FFFFFF" font-family="Helvetica Neue, Helvetica, Arial, sans-serif"> G0142</text></g><g class="node" aria-label="graph-node52" transform="translate(300.89688696998337,-66.34821275468563)"><circle class="b-outline" cx="0" cy="0" r="25" fill="#C990C0" stroke="#b261a5" stroke-width="2px"/><text class="caption" text-anchor="middle" pointer-events="none" x="0" y="5" font-size="10px" fill="#FFFFFF" font-family="Helvetica Neue, Helvetica, Arial, sans-serif"> G0101</text></g><g class="node" aria-label="graph-node57" transform="translate(335.55253457693004,24.5666117651022)"><circle class="b-outline" cx="0" cy="0" r="25" fill="#C990C0" stroke="#b261a5" stroke-width="2px"/><text class="caption" text-anchor="middle" pointer-events="none" x="0" y="5" font-size="10px" fill="#FFFFFF" font-family="Helvetica Neue, Helvetica, Arial, sans-serif"> G0047</text></g><g class="node" aria-label="graph-node61" transform="translate(273.4140061135456,100.7920886906791)"><circle class="b-outline" cx="0" cy="0" r="25" fill="#C990C0" stroke="#b261a5" stroke-width="2px"/><text class="caption" text-anchor="middle" pointer-events="none" x="0" y="5" font-size="10px" fill="#FFFFFF" font-family="Helvetica Neue, Helvetica, Arial, sans-serif"> G0126</text></g><g class="node" aria-label="graph-node67" transform="translate(205.62144036890405,-81.53287991430122)"><circle class="b-outline" cx="0" cy="0" r="25" fill="#C990C0" stroke="#b261a5" stroke-width="2px"/><text class="caption" text-anchor="middle" pointer-events="none" x="0" y="5" font-size="10px" fill="#FFFFFF" font-family="Helvetica Neue, Helvetica, Arial, sans-serif"> G0094</text></g><g class="node" aria-label="graph-node68" transform="translate(241.49719359009157,9.011747001139893)"><circle class="b-outline" cx="0" cy="0" r="25" fill="#C990C0" stroke="#b261a5" stroke-width="2px"/><text class="caption" text-anchor="middle" pointer-events="none" x="0" y="5" font-size="10px" fill="#FFFFFF" font-family="Helvetica Neue, Helvetica, Arial, sans-serif"> G0032</text></g><g class="node" aria-label="graph-node71" transform="translate(143.41647537490985,-7.264464264444852)"><circle class="b-outline" cx="0" cy="0" r="25" fill="#C990C0" stroke="#b261a5" stroke-width="2px"/><text class="caption" text-anchor="middle" pointer-events="none" x="0" y="5" font-size="10px" fill="#FFFFFF" font-family="Helvetica Neue, Helvetica, Arial, sans-serif"> G0065</text></g><g class="node" aria-label="graph-node78" transform="translate(237.0497802718081,259.4061405187339)"><circle class="b-outline" cx="0" cy="0" r="25" fill="#C990C0" stroke="#b261a5" stroke-width="2px"/><text class="caption" text-anchor="middle" pointer-events="none" x="0" y="5" font-size="10px" fill="#FFFFFF" font-family="Helvetica Neue, Helvetica, Arial, sans-serif"> G0069</text></g><g class="node" aria-label="graph-node96" transform="translate(117.46749467238494,157.82161878627898)"><circle class="b-outline" cx="0" cy="0" r="25" fill="#C990C0" stroke="#b261a5" stroke-width="2px"/><text class="caption" text-anchor="middle" pointer-events="none" x="0" y="5" font-size="10px" fill="#FFFFFF" font-family="Helvetica Neue, Helvetica, Arial, sans-serif"> G0034</text></g><g class="node" aria-label="graph-node126" transform="translate(178.64743931491577,82.34269423816961)"><circle class="b-outline" cx="0" cy="0" r="25" fill="#C990C0" stroke="#b261a5" stroke-width="2px"/><text class="caption" text-anchor="middle" pointer-events="none" x="0" y="5" font-size="10px" fill="#FFFFFF" font-family="Helvetica Neue, Helvetica, Arial, sans-serif"> G0102</text></g></g></svg>