<svg xmlns="http://www.w3.org/2000/svg" width="697.5975341796875" height="333.231689453125" viewBox="-350.8663024902344 -125.92247009277344 697.5975341796875 333.231689453125"><title>Neo4j Graph Visualization</title><desc>Created using Neo4j (http://www.neo4j.com/)</desc><g class="layer relationships"><g class="relationship" transform="translate(-5.352325282897418 178.30922078604294) rotate(208.5784542246666)"><path class="b-outline" fill="#A5ABB6" stroke="none" d="M 25 0.5 L 154.80083620197522 0.5 L 154.80083620197522 -0.5 L 25 -0.5 Z M 182.58599245197522 0.5 L 312.38682865395043 0.5 L 312.38682865395043 3.5 L 319.38682865395043 0 L 312.38682865395043 -3.5 L 312.38682865395043 -0.5 L 182.58599245197522 -0.5 Z"/><text text-anchor="middle" pointer-events="none" font-size="8px" fill="#000000" x="168.69341432697522" y="3" transform="rotate(180 168.69341432697522 0)" font-family="Helvetica Neue, Helvetica, Arial, sans-serif">USES</text></g><g class="relationship" transform="translate(-5.352325282897418 178.30922078604294) rotate(333.15954148651815)"><path class="b-outline" fill="#A5ABB6" stroke="none" d="M 25 0.5 L 155.70104039811616 0.5 L 155.70104039811616 -0.5 L 25 -0.5 Z M 183.48619664811616 0.5 L 314.1872370462323 0.5 L 314.1872370462323 3.5 L 321.1872370462323 0 L 314.1872370462323 -3.5 L 314.1872370462323 -0.5 L 183.48619664811616 -0.5 Z"/><text text-anchor="middle" pointer-events="none" font-size="8px" fill="#000000" x="169.59361852311616" y="3" font-family="Helvetica Neue, Helvetica, Arial, sans-serif">USES</text></g><g class="relationship" transform="translate(-5.119649494874679 99.2012264052047) rotate(196.09345246046166)"><path class="b-outline" fill="#A5ABB6" stroke="none" d="M 25 0.5 L 139.7874558784285 0.5 L 139.7874558784285 -0.5 L 25 -0.5 Z M 167.5726121284285 0.5 L 282.360068006857 0.5 L 282.360068006857 3.5 L 289.360068006857 0 L 282.360068006857 -3.5 L 282.360068006857 -0.5 L 167.5726121284285 -0.5 Z"/><text text-anchor="middle" pointer-events="none" font-size="8px" fill="#000000" x="153.6800340034285" y="3" transform="rotate(180 153.6800340034285 0)" font-family="Helvetica Neue, Helvetica, Arial, sans-serif">USES</text></g><g class="relationship" transform="translate(-5.119649494874679 99.2012264052047) rotate(345.66544128612964)"><path class="b-outline" fill="#A5ABB6" stroke="none" d="M 25 0.5 L 141.5995676099876 0.5 L 141.5995676099876 -0.5 L 25 -0.5 Z M 169.3847238599876 0.5 L 285.9842914699752 0.5 L 285.9842914699752 3.5 L 292.9842914699752 0 L 285.9842914699752 -3.5 L 285.9842914699752 -0.5 L 169.3847238599876 -0.5 Z"/><text text-anchor="middle" pointer-events="none" font-size="8px" fill="#000000" x="155.4921457349876" y="3" font-family="Helvetica Neue, Helvetica, Arial, sans-serif">USES</text></g><g class="relationship" transform="translate(0.47201909346234316 -96.92246906287775) rotate(521.2452163199563)"><path class="b-outline" fill="#A5ABB6" stroke="none" d="M 25 0.5 L 145.1037080817597 0.5 L 145.1037080817597 -0.5 L 25 -0.5 Z M 172.8888643317597 0.5 L 292.9925724135194 0.5 L 292.9925724135194 3.5 L 299.9925724135194 0 L 292.9925724135194 -3.5 L 292.9925724135194 -0.5 L 172.8888643317597 -0.5 Z"/><text text-anchor="middle" pointer-events="none" font-size="8px" fill="#000000" x="158.9962862067597" y="3" transform="rotate(180 158.9962862067597 0)" font-family="Helvetica Neue, Helvetica, Arial, sans-serif">USES</text></g><g class="relationship" transform="translate(0.47201909346234316 -96.92246906287775) rotate(380.4553528883488)"><path class="b-outline" fill="#A5ABB6" stroke="none" d="M 25 0.5 L 144.1602133881371 0.5 L 144.1602133881371 -0.5 L 25 -0.5 Z M 171.9453696381371 0.5 L 291.1055830262742 0.5 L 291.1055830262742 3.5 L 298.1055830262742 0 L 291.1055830262742 -3.5 L 291.1055830262742 -0.5 L 171.9453696381371 -0.5 Z"/><text text-anchor="middle" pointer-events="none" font-size="8px" fill="#000000" x="158.0527915131371" y="3" font-family="Helvetica Neue, Helvetica, Arial, sans-serif">USES</text></g><g class="relationship" transform="translate(-4.2901369470612565 1.8732759395921175) rotate(538.5023734665508)"><path class="b-outline" fill="#A5ABB6" stroke="none" d="M 25 0.5 L 133.94847681901643 0.5 L 133.94847681901643 -0.5 L 25 -0.5 Z M 161.73363306901643 0.5 L 270.68210988803287 0.5 L 270.68210988803287 3.5 L 277.68210988803287 0 L 270.68210988803287 -3.5 L 270.68210988803287 -0.5 L 161.73363306901643 -0.5 Z"/><text text-anchor="middle" pointer-events="none" font-size="8px" fill="#000000" x="147.84105494401643" y="3" transform="rotate(180 147.84105494401643 0)" font-family="Helvetica Neue, Helvetica, Arial, sans-serif">USES</text></g><g class="relationship" transform="translate(-4.2901369470612565 1.8732759395921175) rotate(363.0472436124029)"><path class="b-outline" fill="#A5ABB6" stroke="none" d="M 25 0.5 L 136.34076579059618 0.5 L 136.34076579059618 -0.5 L 25 -0.5 Z M 164.12592204059618 0.5 L 275.46668783119236 0.5 L 275.46668783119236 3.5 L 282.46668783119236 0 L 275.46668783119236 -3.5 L 275.46668783119236 -0.5 L 164.12592204059618 -0.5 Z"/><text text-anchor="middle" pointer-events="none" font-size="8px" fill="#000000" x="150.23334391559618" y="3" font-family="Helvetica Neue, Helvetica, Arial, sans-serif">USES</text></g><g class="relationship" transform="translate(310.23120100231745 18.616705035345234) rotate(180.79220975184217)"><path class="b-outline" fill="#A5ABB6" stroke="none" d="M 31.26317983184346,-8.894581878976458 L 31.52199887694598,-7.92865605268739 A 1083.3946952612794 1083.3946952612794 0 0 1 272.8007161876012,-44.13775680997901 L 272.7646033440022,-45.13710452850705 A 1084.3946952612794 1084.3946952612794 0 0 0 31.26317983184346,-8.894581878976458 Z M 344.8663008145181,-45.34398635056482 L 344.83592338682985,-44.34444785111259 A 1083.3946952612794 1083.3946952612794 0 0 1 586.3184561336085,-9.520536770825595 L 585.5586408660236,-6.618351256571744 L 593.2168582114649,-8.231332065503148 L 587.331543157055,-13.390117456497398 L 586.57172788947,-10.487931942243547 A 1084.3946952612794 1084.3946952612794 0 0 0 344.8663008145181,-45.34398635056482"/><text text-anchor="middle" pointer-events="none" font-size="8px" fill="#000000" x="308.8151667902699" y="-42.339973317062004" transform="rotate(180 308.8151667902699 -45.339973317062004)" font-family="Helvetica Neue, Helvetica, Arial, sans-serif">CONNECTED_TO</text></g><g class="relationship" transform="translate(310.23120100231745 18.616705035345234) rotate(180.79220975184217)"><path class="b-outline" fill="#A5ABB6" stroke="none" d="M 31.26317983184346,8.894581878976458 L 31.52199887694598,7.92865605268739 A 1083.3946952612794 1083.3946952612794 0 0 0 279.975167943526,44.373219352562046 L 279.94567729568564,45.372784408818916 A 1084.3946952612794 1084.3946952612794 0 0 1 31.26317983184346,8.894581878976458 Z M 337.6839926400371,45.538453294573856 L 337.66023854627497,44.538735462868544 A 1083.3946952612794 1083.3946952612794 0 0 0 586.3184561336085,9.520536770825595 L 585.5586408660236,6.618351256571744 L 593.2168582114649,8.231332065503148 L 587.331543157055,13.390117456497398 L 586.57172788947,10.487931942243547 A 1084.3946952612794 1084.3946952612794 0 0 1 337.6839926400371,45.538453294573856"/><text text-anchor="middle" pointer-events="none" font-size="8px" fill="#000000" x="308.81516679027" y="48.339973317062004" transform="rotate(180 308.81516679027 45.339973317062004)" font-family="Helvetica Neue, Helvetica, Arial, sans-serif">RELATED_TO</text></g></g><g class="layer nodes"><g class="node" aria-label="graph-node528" transform="translate(-314.3662912606861,9.98005215858042)"><circle class="b-outline" cx="0" cy="0" r="32.5" fill="#F79767" stroke="#f36924" stroke-width="2px"/><text class="caption" text-anchor="middle" pointer-events="none" x="0" y="5" font-size="10px" fill="#FFFFFF" font-family="Helvetica Neue, Helvetica, Arial, sans-serif"> T1566.001</text></g><g class="node" aria-label="graph-node14" transform="translate(-5.352325282897418,178.30922078604294)"><circle class="b-outline" cx="0" cy="0" r="25" fill="#C990C0" stroke="#b261a5" stroke-width="2px"/><text class="caption" text-anchor="middle" pointer-events="none" x="0" y="5" font-size="10px" fill="#FFFFFF" font-family="Helvetica Neue, Helvetica, Arial, sans-serif"> G0082</text></g><g class="node" aria-label="graph-node260" transform="translate(310.23120100231745,18.616705035345234)"><circle class="b-outline" cx="0" cy="0" r="32.5" fill="#F79767" stroke="#f36924" stroke-width="2px"/><text class="caption" text-anchor="middle" pointer-events="none" x="0" y="5" font-size="10px" fill="#FFFFFF" font-family="Helvetica Neue, Helvetica, Arial, sans-serif"> T1486</text></g><g class="node" aria-label="graph-node16" transform="translate(-5.119649494874679,99.2012264052047)"><circle class="b-outline" cx="0" cy="0" r="25" fill="#C990C0" stroke="#b261a5" stroke-width="2px"/><text class="caption" text-anchor="middle" pointer-events="none" x="0" y="5" font-size="10px" fill="#FFFFFF" font-family="Helvetica Neue, Helvetica, Arial, sans-serif"> G0096</text></g><g class="node" aria-label="graph-node48" transform="translate(0.47201909346234316,-96.92246906287775)"><circle class="b-outline" cx="0" cy="0" r="25" fill="#C990C0" stroke="#b261a5" stroke-width="2px"/><text class="caption" text-anchor="middle" pointer-events="none" x="0" y="5" font-size="10px" fill="#FFFFFF" font-family="Helvetica Neue, Helvetica, Arial, sans-serif"> G0046</text></g><g class="node" aria-label="graph-node108" transform="translate(-4.2901369470612565,1.8732759395921175)"><circle class="b-outline" cx="0" cy="0" r="25" fill="#C990C0" stroke="#b261a5" stroke-width="2px"/><text class="caption" text-anchor="middle" pointer-events="none" x="0" y="5" font-size="10px" fill="#FFFFFF" font-family="Helvetica Neue, Helvetica, Arial, sans-serif"> G0092</text></g></g></svg>